<svg width="22" height="23" viewBox="0 0 22 23" fill="none" xmlns="http://www.w3.org/2000/svg">
<g id="elements">
<path id="Vector" d="M16.5798 9.71028C16.0765 9.57326 15.5468 9.50012 15 9.50012C12.4668 9.50012 10.3002 11.07 9.42018 13.29M16.5798 9.71028C19.1271 10.4037 21 12.7332 21 15.5001C21 18.8138 18.3137 21.5001 15 21.5001C13.4633 21.5001 12.0615 20.9224 11 19.9723M16.5798 9.71028C16.851 9.02631 17 8.28062 17 7.50012C17 4.18641 14.3137 1.50012 11 1.50012C7.68629 1.50012 5 4.18641 5 7.50012C5 8.28062 5.14903 9.02631 5.42018 9.71028M9.42018 13.29C9.14903 13.9739 9 14.7196 9 15.5001C9 17.2771 9.7725 18.8737 11 19.9723M9.42018 13.29C7.59146 12.7921 6.11029 11.4511 5.42018 9.71028M5.42018 9.71028C2.87294 10.4037 1 12.7332 1 15.5001C1 18.8138 3.68629 21.5001 7 21.5001C8.53671 21.5001 9.93849 20.9224 11 19.9723" stroke="#595A5B" stroke-width="1.5" stroke-linecap="round"/>
</g>
</svg>
