<svg width="22" height="22" viewBox="0 0 22 22" fill="none" xmlns="http://www.w3.org/2000/svg">
<g id="elements">
<path id="Rectangle 1772" d="M1.5 11.0001C1.5 6.52178 1.5 4.28261 2.89124 2.89136C4.28249 1.50012 6.52166 1.50012 11 1.50012C15.4783 1.50012 17.7175 1.50012 19.1088 2.89136C20.5 4.28261 20.5 6.52178 20.5 11.0001C20.5 15.4785 20.5 17.7176 19.1088 19.1089C17.7175 20.5001 15.4783 20.5001 11 20.5001C6.52166 20.5001 4.28249 20.5001 2.89124 19.1089C1.5 17.7176 1.5 15.4785 1.5 11.0001Z" stroke="#595A5B" stroke-width="1.5"/>
<path id="Ellipse 584" d="M9 8.00012C9 6.89555 9.89543 6.00012 11 6.00012C12.1046 6.00012 13 6.89555 13 8.00012C13 8.39827 12.8837 8.76925 12.6831 9.08091C12.0854 10.0098 11 10.8956 11 12.0001V12.5001" stroke="#595A5B" stroke-width="1.5" stroke-linecap="round"/>
<path id="Vector" d="M10.992 16.0001H11.001" stroke="#595A5B" stroke-width="2" stroke-linecap="round" stroke-linejoin="round"/>
</g>
</svg>
