<svg width="12" height="12" viewBox="0 0 12 12" fill="none" xmlns="http://www.w3.org/2000/svg">
<path d="M11 8.75H1" stroke="#595A5B" stroke-width="0.75" stroke-linecap="round" stroke-linejoin="round"/>
<path d="M11 10.5V8C11 7.05719 11 6.58579 10.7071 6.29289C10.4142 6 9.94281 6 9 6H3C2.05719 6 1.58579 6 1.29289 6.29289C1 6.58579 1 7.05719 1 8V10.5" stroke="#595A5B" stroke-width="0.75" stroke-linecap="round" stroke-linejoin="round"/>
<path d="M5.5 6V5.10668C5.5 4.91636 5.47139 4.8527 5.32487 4.77769C5.01973 4.62146 4.64933 4.5 4.25 4.5C3.85067 4.5 3.48027 4.62146 3.17513 4.77769C3.02861 4.8527 3 4.91636 3 5.10668L3 6" stroke="#595A5B" stroke-width="0.75" stroke-linecap="round"/>
<path d="M9 6V5.10668C9 4.91636 8.97139 4.8527 8.82487 4.77769C8.51973 4.62146 8.14933 4.5 7.75 4.5C7.35067 4.5 6.98027 4.62146 6.67513 4.77769C6.52861 4.8527 6.5 4.91636 6.5 5.10668L6.5 6" stroke="#595A5B" stroke-width="0.75" stroke-linecap="round"/>
<path d="M10.5 6V3.68028C10.5 3.33446 10.5 3.16155 10.4039 2.99826C10.3079 2.83497 10.171 2.75045 9.89721 2.58141C8.79343 1.89989 7.44967 1.5 6 1.5C4.55033 1.5 3.20657 1.89989 2.10279 2.58141C1.82902 2.75045 1.69213 2.83497 1.59607 2.99826C1.5 3.16155 1.5 3.33446 1.5 3.68028V6" stroke="#595A5B" stroke-width="0.75" stroke-linecap="round"/>
</svg>
