<svg width="32" height="32" viewBox="0 0 32 32" fill="none" xmlns="http://www.w3.org/2000/svg">
<rect x="0.5" y="0.5" width="31" height="31" rx="5.5" stroke="#233663"/>
<path d="M16 15.5C16.4955 15.5 16.9562 15.3015 17.8775 14.9045L18.5423 14.618C20.1808 13.912 21 13.559 21 13C21 12.441 20.1808 12.088 18.5423 11.382L17.8775 11.0955C16.9562 10.6985 16.4955 10.5 16 10.5C15.5045 10.5 15.0438 10.6985 14.1225 11.0955L13.4577 11.382C11.8192 12.088 11 12.441 11 13C11 13.559 11.8192 13.912 13.4577 14.618L14.1225 14.9045C15.0438 15.3015 15.5045 15.5 16 15.5ZM16 15.5V21.5" stroke="#2C3E67" stroke-width="1.5" stroke-linejoin="round"/>
<path d="M21 13V19C21 19.559 20.1808 19.912 18.5423 20.618L17.8775 20.9045C16.9562 21.3015 16.4955 21.5 16 21.5C15.5045 21.5 15.0438 21.3015 14.1225 20.9045L13.4577 20.618C11.8192 19.912 11 19.559 11 19V13" stroke="#2C3E67" stroke-width="1.5" stroke-linejoin="round"/>
<path d="M13.1443 6.5C10.4872 6.56075 8.93529 6.81456 7.87493 7.87493C6.81456 8.93529 6.56075 10.4872 6.5 13.1443M18.8557 6.5C21.5128 6.56075 23.0647 6.81456 24.1251 7.87493C25.1854 8.93529 25.4392 10.4872 25.5 13.1443M18.8557 25.5C21.5128 25.4392 23.0647 25.1854 24.1251 24.1251C25.1854 23.0647 25.4392 21.5128 25.5 18.8557M13.1443 25.5C10.4872 25.4392 8.93529 25.1854 7.87493 24.1251C6.81456 23.0647 6.56075 21.5128 6.5 18.8557" stroke="#2C3E67" stroke-width="1.5" stroke-linecap="round" stroke-linejoin="round"/>
</svg>
