<svg width="32" height="32" viewBox="0 0 32 32" fill="none" xmlns="http://www.w3.org/2000/svg">
<rect x="0.5" y="0.5" width="31" height="31" rx="5.5" stroke="#233663"/>
<path d="M20.9523 20.5361L21.4533 19.978C21.1681 19.7219 20.7356 19.7222 20.4506 19.9786L20.9523 20.5361ZM7.34514 23.7827L6.84413 24.3408L6.84413 24.3408L7.34514 23.7827ZM10.994 11.4999L11.4957 12.0574L10.994 11.4999ZM24.6549 8.20497L25.1559 7.64686V7.64686L24.6549 8.20497ZM23.7259 16.1129C23.5104 16.4666 23.6224 16.9281 23.9762 17.1436C24.3299 17.3591 24.7914 17.2471 25.0069 16.8934L23.7259 16.1129ZM19.9271 24.1346C19.79 24.5255 19.9957 24.9535 20.3866 25.0906C20.7774 25.2277 21.2054 25.022 21.3426 24.6311L19.9271 24.1346ZM20.4506 19.9786C18.1412 22.057 15.5406 23.4221 13.2197 23.9736C10.8715 24.5315 8.96519 24.2291 7.84616 23.2246L6.84413 24.3408C8.48985 25.8182 10.9972 26.0434 13.5664 25.4329C16.1629 24.816 18.9835 23.3169 21.454 21.0936L20.4506 19.9786ZM7.84616 23.2246C6.76341 22.2526 6.44351 20.61 7.05925 18.5373C7.67177 16.4754 9.1839 14.1378 11.4957 12.0574L10.4923 10.9424C8.02411 13.1636 6.32945 15.7265 5.62135 18.1101C4.91648 20.4829 5.16213 22.8308 6.84413 24.3408L7.84616 23.2246ZM11.4957 12.0574C13.8052 9.97891 16.4201 8.60106 18.756 8.03767C21.1212 7.4672 23.0378 7.76116 24.1538 8.76307L25.1559 7.64686C23.5072 6.16684 20.9833 5.95742 18.4043 6.57948C15.7959 7.20861 12.9627 8.71919 10.4923 10.9424L11.4957 12.0574ZM24.1538 8.76307C24.9275 9.45762 25.3027 10.4733 25.2441 11.7471C25.1849 13.0329 24.68 14.5471 23.7259 16.1129L25.0069 16.8934C26.0521 15.1779 26.6687 13.4204 26.7425 11.816C26.8169 10.1996 26.3367 8.70686 25.1559 7.64686L24.1538 8.76307ZM20.4513 21.0942C20.3957 21.0443 20.4774 21.0809 20.4839 21.4478C20.4895 21.762 20.4372 22.1595 20.3529 22.5744C20.27 22.9823 20.1632 23.3742 20.076 23.6667C20.0327 23.8121 19.9948 23.9311 19.968 24.0129C19.9546 24.0538 19.944 24.0853 19.9369 24.1061C19.9334 24.1164 19.9308 24.1241 19.9291 24.1289C19.9283 24.1313 19.9277 24.133 19.9273 24.134C19.9272 24.1345 19.9271 24.1348 19.927 24.1349C19.927 24.1349 19.927 24.1349 19.927 24.1349C19.927 24.1349 19.927 24.1348 19.9271 24.1348C19.9271 24.1347 19.9271 24.1346 20.6348 24.3829C21.3426 24.6311 21.3426 24.631 21.3426 24.6309C21.3427 24.6309 21.3427 24.6307 21.3427 24.6306C21.3428 24.6304 21.3429 24.6301 21.343 24.6298C21.3433 24.6291 21.3436 24.6283 21.3439 24.6272C21.3446 24.6252 21.3456 24.6223 21.3469 24.6188C21.3493 24.6117 21.3528 24.6016 21.3571 24.5888C21.3658 24.5632 21.3782 24.5265 21.3934 24.48C21.4238 24.3873 21.4658 24.2553 21.5136 24.0951C21.6085 23.7764 21.7282 23.3387 21.8229 22.873C21.9161 22.4142 21.9921 21.8941 21.9837 21.421C21.9762 21.0005 21.9013 20.3802 21.4533 19.978L20.4513 21.0942Z" fill="#2C3E67"/>
</svg>
