<svg width="21" height="20" viewBox="0 0 21 20" fill="none" xmlns="http://www.w3.org/2000/svg">
<path d="M13.6292 11.8792H12.9709L12.7375 11.6542C13.5542 10.7042 14.0459 9.47083 14.0459 8.12916C14.0459 5.13749 11.6209 2.71249 8.62919 2.71249C5.63752 2.71249 3.21252 5.13749 3.21252 8.12916C3.21252 11.1208 5.63752 13.5458 8.62919 13.5458C9.97086 13.5458 11.2042 13.0542 12.1542 12.2375L12.3792 12.4708V13.1292L16.5459 17.2875L17.7875 16.0458L13.6292 11.8792ZM8.62919 11.8792C6.55419 11.8792 4.87919 10.2042 4.87919 8.12916C4.87919 6.05416 6.55419 4.37916 8.62919 4.37916C10.7042 4.37916 12.3792 6.05416 12.3792 8.12916C12.3792 10.2042 10.7042 11.8792 8.62919 11.8792Z" fill="#A6A9AC"/>
</svg>
