<svg width="12" height="12" viewBox="0 0 12 12" fill="none" xmlns="http://www.w3.org/2000/svg">
<path d="M11.5313 0.75H8.76565C8.50676 0.75 8.2969 0.988622 8.2969 1.28299V3.89467H6.00002C5.74116 3.89467 5.53127 4.13329 5.53127 4.42766V7.03934H3.2344C2.97551 7.03934 2.76565 7.27796 2.76565 7.57234V10.184H0.46875C0.209859 10.184 0 10.4226 0 10.717C0 11.0114 0.209859 11.25 0.46875 11.25H3.2344C3.35871 11.25 3.47796 11.1938 3.56585 11.0939C3.65377 10.9939 3.70315 10.8584 3.70315 10.717L3.70312 8.10533H6.00002C6.12434 8.10533 6.24359 8.04918 6.33148 7.94922C6.41939 7.84928 6.46877 7.71369 6.46877 7.57234L6.46875 4.96066H8.76562C8.88996 4.96066 9.00919 4.90451 9.09708 4.80455C9.18499 4.70461 9.23438 4.56902 9.23438 4.42766L9.23435 1.81599H11.5312C11.7901 1.81599 12 1.57737 12 1.28299C12 0.988622 11.7901 0.75 11.5313 0.75Z" fill="#595A5B"/>
</svg>
