<svg width="25" height="24" viewBox="0 0 25 24" fill="none" xmlns="http://www.w3.org/2000/svg">
<path d="M6.375 19.6231C5.68593 19.4279 5.14272 19.1317 4.69302 18.682C3.375 17.364 3.375 15.2426 3.375 11C3.375 6.75736 3.375 4.63604 4.69302 3.31802C6.01104 2 8.13236 2 12.375 2C16.6176 2 18.739 2 20.057 3.31802C21.375 4.63604 21.375 6.75736 21.375 11C21.375 15.2426 21.375 17.364 20.057 18.682C19.6073 19.1317 19.0641 19.4279 18.375 19.6231" stroke="#233663" stroke-width="1.5" stroke-linecap="round"/>
<path d="M12.375 20.1928C11.9608 20.1928 11.6275 20.5121 10.9608 21.1508C10.3144 21.77 9.99123 22.0796 9.71874 21.9824C9.68527 21.9705 9.65305 21.9548 9.62263 21.9355C9.375 21.7786 9.375 21.3111 9.375 20.3762L9.375 17.2512C9.375 15.7186 9.375 14.9523 9.81434 14.4761C10.2537 14 10.9608 14 12.375 14C13.7892 14 14.4963 14 14.9357 14.4761C15.375 14.9523 15.375 15.7186 15.375 17.2512V20.3762C15.375 21.3111 15.375 21.7786 15.1274 21.9355C15.0969 21.9548 15.0647 21.9705 15.0313 21.9824C14.7588 22.0796 14.4356 21.77 13.7892 21.1508C13.1225 20.5121 12.7892 20.1928 12.375 20.1928Z" fill="#233663" stroke="#233663" stroke-width="1.5" stroke-linecap="round" stroke-linejoin="round"/>
<path d="M8.375 10H16.375" stroke="#233663" stroke-width="1.5" stroke-linecap="round" stroke-linejoin="round"/>
<path d="M8.375 6L12.375 6" stroke="#233663" stroke-width="1.5" stroke-linecap="round" stroke-linejoin="round"/>
</svg>
