<svg width="21" height="22" viewBox="0 0 21 22" fill="none" xmlns="http://www.w3.org/2000/svg">
<g id="elements">
<path id="Vector 6734" d="M4.375 18.6231C3.68593 18.4279 3.14272 18.1317 2.69302 17.682C1.375 16.364 1.375 14.2426 1.375 10C1.375 5.75736 1.375 3.63604 2.69302 2.31802C4.01104 1 6.13236 1 10.375 1C14.6176 1 16.739 1 18.057 2.31802C19.375 3.63604 19.375 5.75736 19.375 10C19.375 14.2426 19.375 16.364 18.057 17.682C17.6073 18.1317 17.0641 18.4279 16.375 18.6231" stroke="#595A5B" stroke-width="1.5" stroke-linecap="round"/>
<path id="Vector 4680" d="M10.375 19.1928C9.96079 19.1928 9.62745 19.5121 8.96079 20.1508C8.31441 20.77 7.99123 21.0796 7.71874 20.9824C7.68527 20.9705 7.65305 20.9548 7.62263 20.9355C7.375 20.7786 7.375 20.3111 7.375 19.3762L7.375 16.2512C7.375 14.7186 7.375 13.9523 7.81434 13.4761C8.25368 13 8.96079 13 10.375 13C11.7892 13 12.4963 13 12.9357 13.4761C13.375 13.9523 13.375 14.7186 13.375 16.2512V19.3762C13.375 20.3111 13.375 20.7786 13.1274 20.9355C13.0969 20.9548 13.0647 20.9705 13.0313 20.9824C12.7588 21.0796 12.4356 20.77 11.7892 20.1508C11.1225 19.5121 10.7892 19.1928 10.375 19.1928Z" stroke="#595A5B" stroke-width="1.5" stroke-linecap="round" stroke-linejoin="round"/>
<path id="Vector 4716" d="M6.375 9H14.375" stroke="#595A5B" stroke-width="1.5" stroke-linecap="round" stroke-linejoin="round"/>
<path id="Vector 4717" d="M6.375 5L10.375 5" stroke="#595A5B" stroke-width="1.5" stroke-linecap="round" stroke-linejoin="round"/>
</g>
</svg>
