<svg width="22" height="22" viewBox="0 0 22 22" fill="none" xmlns="http://www.w3.org/2000/svg">
<g id="elements">
<path id="Vector" d="M10.9982 1.00027C7.99043 1.00027 6.04018 3.01927 3.73371 3.75518C2.79589 4.0544 2.32697 4.20402 2.1372 4.41492C1.94743 4.62583 1.89186 4.93402 1.78072 5.55041C0.591434 12.1463 3.1909 18.2442 9.39029 20.6178C10.0564 20.8728 10.3894 21.0003 11.0015 21.0003C11.6135 21.0003 11.9466 20.8728 12.6126 20.6177C18.8116 18.2442 21.4086 12.1462 20.219 5.5504C20.1078 4.93391 20.0522 4.62567 19.8624 4.41476C19.6726 4.20385 19.2037 4.05432 18.2659 3.75526C15.9585 3.01942 14.0061 1.00027 10.9982 1.00027Z" stroke="#595A5B" stroke-width="1.5" stroke-linecap="round" stroke-linejoin="round"/>
<path id="Vector 3404" d="M11 6.00027L11 8.00027" stroke="#595A5B" stroke-width="1.5" stroke-linecap="round"/>
</g>
</svg>
