<svg width="22" height="22" viewBox="0 0 22 22" fill="none" xmlns="http://www.w3.org/2000/svg">
<g id="elements">
<path id="Vector" d="M6.78256 16.1112C5.68218 16.743 2.79706 18.0331 4.55429 19.6475C5.41269 20.436 6.36872 21 7.57068 21H14.4293C15.6313 21 16.5873 20.436 17.4457 19.6475C19.2029 18.0331 16.3178 16.743 15.2174 16.1112C12.6371 14.6296 9.36292 14.6296 6.78256 16.1112Z" stroke="#595A5B" stroke-width="1.5" stroke-linecap="round" stroke-linejoin="round"/>
<path id="Ellipse 1381" d="M14.5 9.00003C14.5 10.933 12.933 12.5 11 12.5C9.067 12.5 7.5 10.933 7.5 9.00003C7.5 7.06703 9.067 5.50003 11 5.50003C12.933 5.50003 14.5 7.06703 14.5 9.00003Z" stroke="#595A5B" stroke-width="1.5"/>
<path id="Vector_2" d="M1.854 15C1.30501 13.7664 1 12.401 1 10.9646C1 5.46132 5.47715 1.00003 11 1.00003C16.5228 1.00003 21 5.46132 21 10.9646C21 12.401 20.695 13.7664 20.146 15" stroke="#595A5B" stroke-width="1.5" stroke-linecap="round"/>
</g>
</svg>
