<svg width="25" height="24" viewBox="0 0 25 24" fill="none" xmlns="http://www.w3.org/2000/svg">
<path d="M19.625 12.5V17.9808C19.625 20.2867 19.625 21.4396 18.8522 21.8523C17.3555 22.6515 14.5482 19.9852 13.215 19.1824C12.4418 18.7168 12.0552 18.484 11.625 18.484C11.1948 18.484 10.8082 18.7168 10.035 19.1824C8.7018 19.9852 5.89447 22.6515 4.39785 21.8523C3.625 21.4396 3.625 20.2867 3.625 17.9808V9.70753C3.625 6.07417 3.625 4.25749 4.79657 3.12875C5.85967 2.10452 7.5107 2.00968 10.625 2.0009" stroke="#233663" stroke-width="1.5" stroke-linecap="round" stroke-linejoin="round"/>
<path d="M17.3161 2.57767L18.02 3.99715C18.116 4.19475 18.3719 4.38428 18.5879 4.42057L19.8638 4.6343C20.6797 4.77141 20.8717 5.36824 20.2837 5.957L19.2918 6.95709C19.1239 7.12646 19.0319 7.4531 19.0839 7.68699L19.3678 8.925C19.5918 9.90492 19.0759 10.284 18.216 9.77185L17.0201 9.05808C16.8041 8.92903 16.4482 8.92903 16.2282 9.05808L15.0323 9.77185C14.1764 10.284 13.6565 9.90089 13.8804 8.925L14.1644 7.68699C14.2164 7.4531 14.1244 7.12646 13.9564 6.95709L12.9645 5.957C12.3806 5.36824 12.5686 4.77141 13.3845 4.6343L14.6603 4.42057C14.8723 4.38428 15.1283 4.19475 15.2243 3.99715L15.9282 2.57767C16.3122 1.80744 16.9361 1.80744 17.3161 2.57767Z" fill="#233663" stroke="#233663" stroke-width="1.5" stroke-linecap="round" stroke-linejoin="round"/>
</svg>
