<svg width="22" height="22" viewBox="0 0 22 22" fill="none" xmlns="http://www.w3.org/2000/svg">
<g id="elements">
<path id="Vector" d="M16.625 16.5L21.125 21" stroke="#233663" stroke-width="1.5" stroke-linecap="round" stroke-linejoin="round"/>
<path id="Vector_2" d="M19.125 10C19.125 5.02944 15.0956 1 10.125 1C5.15444 1 1.125 5.02944 1.125 10C1.125 14.9706 5.15444 19 10.125 19C15.0956 19 19.125 14.9706 19.125 10Z" stroke="#233663" stroke-width="1.5" stroke-linejoin="round"/>
<path id="Rectangle 2076" d="M8.6174 6.5C7.90091 6.54342 7.44493 6.66286 7.11639 6.99139C6.78786 7.31993 6.66842 7.77591 6.625 8.4924M11.6326 6.5C12.3491 6.54342 12.8051 6.66286 13.1336 6.99139C13.4621 7.31993 13.5816 7.77591 13.625 8.4924M13.6173 11.6214C13.5681 12.273 13.4444 12.6978 13.1336 13.0086C12.8051 13.3371 12.3491 13.4566 11.6326 13.5M8.6174 13.5C7.9009 13.4566 7.44493 13.3371 7.11639 13.0086C6.8056 12.6978 6.68193 12.273 6.63272 11.6214" stroke="#233663" stroke-width="1.5" stroke-linecap="round" stroke-linejoin="round"/>
</g>
</svg>
