<svg width="12" height="12" viewBox="0 0 12 12" fill="none" xmlns="http://www.w3.org/2000/svg">
<g clip-path="url(#clip0_1615_5497)">
<path d="M2.5 1V4M1 2.5H4" stroke="#595A5B" stroke-linecap="round" stroke-linejoin="round"/>
<path d="M10 8.99999L10 3.49999M3.5 9.99999H9M9 2.49999H6M2.5 5.99999V8.99999" stroke="#595A5B" stroke-linecap="round" stroke-linejoin="round"/>
<path d="M9 2.49999C9 2.02859 9 1.79289 9.14645 1.64644C9.29289 1.49999 9.5286 1.49999 10 1.49999C10.4714 1.49999 10.7071 1.49999 10.8536 1.64644C11 1.79289 11 2.02859 11 2.49999C11 2.9714 11 3.2071 10.8536 3.35355C10.7071 3.49999 10.4714 3.49999 10 3.49999C9.5286 3.49999 9.29289 3.49999 9.14645 3.35355C9 3.2071 9 2.9714 9 2.49999Z" stroke="#595A5B"/>
<path d="M9 9.99999C9 9.52859 9 9.29289 9.14645 9.14644C9.29289 8.99999 9.5286 8.99999 10 8.99999C10.4714 8.99999 10.7071 8.99999 10.8536 9.14644C11 9.29289 11 9.52859 11 9.99999C11 10.4714 11 10.7071 10.8536 10.8535C10.7071 11 10.4714 11 10 11C9.5286 11 9.29289 11 9.14645 10.8535C9 10.7071 9 10.4714 9 9.99999Z" stroke="#595A5B"/>
<path d="M1.5 9.99999C1.5 9.52859 1.5 9.29289 1.64645 9.14644C1.79289 8.99999 2.0286 8.99999 2.5 8.99999C2.9714 8.99999 3.20711 8.99999 3.35355 9.14644C3.5 9.29289 3.5 9.52859 3.5 9.99999C3.5 10.4714 3.5 10.7071 3.35355 10.8535C3.20711 11 2.9714 11 2.5 11C2.0286 11 1.79289 11 1.64645 10.8535C1.5 10.7071 1.5 10.4714 1.5 9.99999Z" stroke="#595A5B"/>
</g>
<defs>
<clipPath id="clip0_1615_5497">
<rect width="12" height="12" fill="white"/>
</clipPath>
</defs>
</svg>
