<svg width="21" height="21" viewBox="0 0 21 21" fill="none" xmlns="http://www.w3.org/2000/svg">
<g id="elements">
<path id="Vector" d="M1 10.5001C1 6.02175 1 3.78258 2.39124 2.39133C3.78249 1.00009 6.02166 1.00009 10.5 1.00009C14.9783 1.00009 17.2175 1.00009 18.6088 2.39133C20 3.78258 20 6.02175 20 10.5001C20 14.9784 20 17.2176 18.6088 18.6088C17.2175 20.0001 14.9783 20.0001 10.5 20.0001C6.02166 20.0001 3.78249 20.0001 2.39124 18.6088C1 17.2176 1 14.9784 1 10.5001Z" stroke="#595A5B" stroke-width="1.5" stroke-linejoin="round"/>
<path id="Vector_2" d="M11.3638 6.22218L12.2437 7.99653C12.3637 8.24353 12.6837 8.48044 12.9536 8.52581L14.5485 8.79297C15.5684 8.96436 15.8083 9.71039 15.0734 10.4463L13.8335 11.6964C13.6236 11.9082 13.5086 12.3165 13.5736 12.6088L13.9285 14.1563C14.2085 15.3812 13.5636 15.8551 12.4887 15.2149L10.9939 14.3227C10.7239 14.1614 10.2789 14.1614 10.004 14.3227L8.50913 15.2149C7.43925 15.8551 6.78932 15.3762 7.06929 14.1563L7.42425 12.6088C7.48925 12.3165 7.37426 11.9082 7.16428 11.6964L5.92442 10.4463C5.1945 9.71039 5.42947 8.96436 6.44936 8.79297L8.04419 8.52581C8.30916 8.48044 8.62912 8.24353 8.74911 7.99653L9.62901 6.22218C10.109 5.2594 10.8889 5.2594 11.3638 6.22218Z" stroke="#595A5B" stroke-width="1.5" stroke-linecap="round" stroke-linejoin="round"/>
</g>
</svg>
