<svg width="18" height="18" viewBox="0 0 18 18" fill="none" xmlns="http://www.w3.org/2000/svg">
<g clip-path="url(#clip0_836_2802)">
<path d="M9 16.5C13.1421 16.5 16.5 13.1421 16.5 8.99998C16.5 4.85785 13.1421 1.49998 9 1.49998C4.85786 1.49998 1.5 4.85785 1.5 8.99998C1.5 10.0341 1.70931 11.0194 2.08787 11.9157C2.29708 12.4111 2.40169 12.6588 2.41465 12.846C2.4276 13.0332 2.3725 13.2391 2.26231 13.6509L1.5 16.5L4.34908 15.7377C4.76091 15.6275 4.96683 15.5724 5.15402 15.5853C5.3412 15.5983 5.58889 15.7029 6.08426 15.9121C6.98059 16.2907 7.96585 16.5 9 16.5Z" stroke="#233663" stroke-width="1.125" stroke-linejoin="round"/>
<path d="M6.44112 9.28299L7.09432 8.47172C7.36962 8.12979 7.70996 7.81145 7.7366 7.35618C7.74333 7.24119 7.66242 6.72491 7.5006 5.69238C7.437 5.28659 7.05815 5.24998 6.72999 5.24998C6.30236 5.24998 6.08854 5.24998 5.87621 5.34697C5.60785 5.46955 5.33234 5.81422 5.27188 6.10298C5.22404 6.33146 5.25959 6.48889 5.33069 6.80375C5.63267 8.1411 6.34111 9.46187 7.43961 10.5604C8.53811 11.6589 9.85889 12.3673 11.1962 12.6693C11.5111 12.7404 11.6685 12.7759 11.897 12.7281C12.1858 12.6676 12.5304 12.3921 12.653 12.1238C12.75 11.9114 12.75 11.6976 12.75 11.27C12.75 10.9418 12.7134 10.563 12.3076 10.4994C11.2751 10.3376 10.7588 10.2567 10.6438 10.2634C10.1885 10.29 9.87019 10.6304 9.52827 10.9057L8.717 11.5589" stroke="#233663" stroke-width="1.125"/>
</g>
<defs>
<clipPath id="clip0_836_2802">
<rect width="18" height="18" fill="white"/>
</clipPath>
</defs>
</svg>
